<?xml version="1.0" encoding="utf-8"?>
<!-- Generator: Adobe Illustrator 22.0.0, SVG Export Plug-In . SVG Version: 6.00 Build 0)  -->
<svg version="1.1" xmlns="http://www.w3.org/2000/svg" xmlns:xlink="http://www.w3.org/1999/xlink" x="0px" y="0px"
	 viewBox="0 0 800 800" style="enable-background:new 0 0 800 800;" xml:space="preserve">
<style type="text/css">
	.st0{fill:#FFFFFF;}
</style>
<g id="Layer_2">
	<g>
		<path class="st0" d="M624.5,209.1v-17.7H545v26.3c-1.2-8.8-5-15.6-11.3-20.6c-7.4-5.9-16.4-8.8-27-8.8c-12.6,0-22.2,3.1-28.7,9.3
			c-2.7,2.6-4.8,5.4-6.4,8.5v-14.7H296.1v69.8l-52.8-69.8H142.7v104.5h99.7v-68.2l52.1,68.2h177.1v-13.2c1.7,2.6,3.7,4.9,6.2,7
			c7.4,6.2,17.7,9.4,30.7,9.4c12.7,0,22.6-3.2,29.6-9.5c2.9-2.6,5.2-5.6,6.9-8.8v15.1h79.5v-17.6h-58.4v-28.5h40.8v-17.6h-40.8
			v-23.2H624.5z M222.8,278.3h-59v-28.5h40.8v-17.6h-40.8v-23.2h59V278.3z M334,249.1l-18.3,22.6v-62.5h50.6l-18.2,22.5H334V249.1z
			 M392.2,278.3h-55.3l23.7-29.2h14.2v-17.5l17.4-21.4l0,0V278.3z M519.8,279.5c-3.1,1.1-7.1,1.7-12.1,1.7c-8.3,0-14.2-2.2-17.6-6.5
			c-1.9-2.4-3.1-6-3.8-10.8h-19.7c0,5.3,0.9,10.1,2.7,14.3h-56v-28.5h40.8v-17.6h-40.8v-23.2h57.1c-1.4,3.7-2.1,7.6-2.1,12
			c0,4.5,0.6,8.4,1.9,11.9c1.6,4.5,4.3,8.1,8.1,10.8c3.9,2.9,11.2,5.6,21.7,8l10.7,2.5c6.3,1.4,10.8,3.1,13.7,4.9
			c2.9,1.9,4.3,4.6,4.3,8C528.7,273.3,525.7,277.3,519.8,279.5z M545,250.5c-1.4-2.4-3.1-4.5-5.3-6.3c-3.8-3.2-9.5-5.7-17.1-7.6
			l-17.3-4.3c-6.7-1.7-11.1-3.1-13.1-4.4c-3.2-1.8-4.8-4.7-4.8-8.4c0-4.1,1.6-7.3,4.9-9.6c3.3-2.3,7.6-3.4,13.1-3.4
			c4.9,0,9,0.9,12.3,2.6c4.9,2.7,7.6,7.2,8,13.5H545V250.5z"/>
	</g>
</g>
<g id="Layer_3">
	<polygon points="642.2,225.3 642.2,265 602.5,265 602.5,249.9 606.9,249.9 606.9,232.3 602.5,232.3 602.5,225.3 	"/>
</g>
</svg>
