<?xml version="1.0" encoding="utf-8"?>
<!-- Generator: Adobe Illustrator 22.0.0, SVG Export Plug-In . SVG Version: 6.00 Build 0)  -->
<svg version="1.1" id="Layer_1" xmlns="http://www.w3.org/2000/svg" xmlns:xlink="http://www.w3.org/1999/xlink" x="0px" y="0px"
	 viewBox="0 0 517.2 175.3" style="enable-background:new 0 0 517.2 175.3;" xml:space="preserve">
<style type="text/css">
	.st0{opacity:0.45;fill:#FFFFFF;enable-background:new    ;}
</style>
<g id="Layer_3_1_">
	<path class="st0" d="M499.5,53.1V35.4H420v26.3c-1.2-8.8-5-15.6-11.3-20.6c-7.4-5.9-16.4-8.8-27-8.8c-12.6,0-22.2,3.1-28.7,9.3
		c-2.7,2.6-4.8,5.4-6.4,8.5V35.4H171.1v69.8l-52.8-69.8H17.7v104.5h99.7V71.7l52.1,68.2h177.1v-13.2c1.7,2.6,3.7,4.9,6.2,7
		c7.4,6.2,17.7,9.4,30.7,9.4c12.7,0,22.6-3.2,29.6-9.5c2.9-2.6,5.2-5.6,6.9-8.8v15.1h79.5v-17.6h-58.4V93.8h58.4V76.2h-58.4V53
		L499.5,53.1L499.5,53.1z M97.8,122.3h-59V93.8h40.8V76.2H38.8V53h59V122.3z M288.3,53.1h57.1c-1.4,3.7-2.1,7.6-2.1,12
		c0,4.2,0.5,7.9,1.6,11.2h-56.6V53.1z M209,93.1l-18.3,22.6V53.2h50.6l-18.2,22.5H209V93.1z M267.2,122.3h-55.3l23.7-29.2h14.2V75.6
		l17.4-21.4l0,0V122.3L267.2,122.3z M394.8,123.5c-3.1,1.1-7.1,1.7-12.1,1.7c-8.3,0-14.2-2.2-17.6-6.5c-1.9-2.4-3.1-6-3.8-10.8
		h-19.7c0,5.3,0.9,10.1,2.7,14.3h-56V93.7h58.4V80.2c1.6,3,3.8,5.5,6.6,7.5c3.9,2.9,11.2,5.6,21.7,8l10.7,2.5
		c6.3,1.4,10.8,3.1,13.7,4.9c2.9,1.9,4.3,4.6,4.3,8C403.7,117.3,400.7,121.3,394.8,123.5z M420,94.5c-1.4-2.4-3.1-4.5-5.3-6.3
		c-3.8-3.2-9.5-5.7-17.1-7.6l-17.3-4.3c-6.7-1.7-11.1-3.1-13.1-4.4c-3.2-1.8-4.8-4.7-4.8-8.4c0-4.1,1.6-7.3,4.9-9.6
		s7.6-3.4,13.1-3.4c4.9,0,9,0.9,12.3,2.6c4.9,2.7,7.6,7.2,8,13.5H420L420,94.5L420,94.5z"/>
</g>
<g id="Layer_2_1_">
	<polygon points="38.8,53.1 97.8,53.1 97.8,122.3 38.8,122.3 38.8,93.9 79.6,93.9 79.6,76.3 38.8,76.3 	"/>
	<polygon points="223.2,75.5 209,75.5 209,93.1 190.7,115.6 190.7,53.1 241.4,53.1 	"/>
	<polygon points="249.8,75.7 267.2,54.2 267.2,122.3 211.9,122.3 235.6,93.1 249.8,93.1 	"/>
	<path d="M344.9,76.3h-56.6V53.1h57.1c-1.4,3.7-2.1,7.7-2.1,12C343.3,69.3,343.8,73,344.9,76.3z"/>
	<path d="M403.7,111.4c0,6-2.9,10-8.8,12.2c-3.1,1.1-7.1,1.7-12.1,1.7c-8.3,0-14.2-2.2-17.6-6.5c-1.9-2.4-3.2-6-3.8-10.8h-19.7
		c0,5.3,0.9,10.1,2.7,14.3h-56.1V93.9h58.4V80.3c1.6,3,3.8,5.5,6.6,7.5c4,2.9,11.2,5.6,21.7,8.1l10.7,2.5c6.2,1.4,10.8,3,13.7,4.9
		C402.2,105.3,403.7,107.9,403.7,111.4z"/>
	<path d="M420,66.6v27.9c-1.4-2.4-3.1-4.5-5.4-6.3c-3.8-3.2-9.5-5.7-17.1-7.6l-17.3-4.4c-6.7-1.6-11-3.1-13.1-4.3
		c-3.2-1.8-4.8-4.6-4.8-8.4c0-4.1,1.7-7.3,4.9-9.6c3.3-2.3,7.6-3.4,13.1-3.4c4.9,0,9,0.8,12.3,2.6c5,2.7,7.6,7.2,8,13.5
		C400.6,66.6,420,66.6,420,66.6z"/>
	<path d="M420,66.6v27.9c-1.4-2.4-3.1-4.5-5.4-6.3c-3.8-3.2-9.5-5.7-17.1-7.6l-17.3-4.4c-6.7-1.6-11-3.1-13.1-4.3
		c-3.2-1.8-4.8-4.6-4.8-8.4c0-4.1,1.7-7.3,4.9-9.6c3.3-2.3,7.6-3.4,13.1-3.4c4.9,0,9,0.8,12.3,2.6c5,2.7,7.6,7.2,8,13.5
		C400.6,66.6,420,66.6,420,66.6z"/>
	<path d="M343.3,65.1c0,4.2,0.5,7.9,1.6,11.2h-56.6V53.1h57.1C344,56.8,343.3,60.8,343.3,65.1z"/>
	<polygon points="241.4,53.1 223.2,75.5 209,75.5 209,93.1 190.7,115.6 190.7,53.1 	"/>
	<polygon points="97.8,53.1 97.8,122.3 38.8,122.3 38.8,93.9 79.6,93.9 79.6,76.3 38.8,76.3 38.8,53.1 	"/>
	<polygon points="267.2,54.2 267.2,122.3 211.9,122.3 235.6,93.1 249.8,93.1 249.8,75.7 	"/>
	<path d="M403.7,111.4c0,6-2.9,10-8.8,12.2c-3.1,1.1-7.1,1.7-12.1,1.7c-8.3,0-14.2-2.2-17.6-6.5c-1.9-2.4-3.2-6-3.8-10.8h-19.7
		c0,5.3,0.9,10.1,2.7,14.3h-56.1V93.9h58.4V80.3c1.6,3,3.8,5.5,6.6,7.5c4,2.9,11.2,5.6,21.7,8.1l10.7,2.5c6.2,1.4,10.8,3,13.7,4.9
		C402.2,105.3,403.7,107.9,403.7,111.4z"/>
	<polygon points="38.8,53.1 97.8,53.1 97.8,122.3 38.8,122.3 38.8,93.9 79.6,93.9 79.6,76.3 38.8,76.3 	"/>
	<polygon points="223.2,75.5 209,75.5 209,93.1 190.7,115.6 190.7,53.1 241.4,53.1 	"/>
	<polygon points="249.8,75.7 267.2,54.2 267.2,122.3 211.9,122.3 235.6,93.1 249.8,93.1 	"/>
	<path d="M344.9,76.3h-56.6V53.1h57.1c-1.4,3.7-2.1,7.7-2.1,12C343.3,69.3,343.8,73,344.9,76.3z"/>
	<path d="M403.7,111.4c0,6-2.9,10-8.8,12.2c-3.1,1.1-7.1,1.7-12.1,1.7c-8.3,0-14.2-2.2-17.6-6.5c-1.9-2.4-3.2-6-3.8-10.8h-19.7
		c0,5.3,0.9,10.1,2.7,14.3h-56.1V93.9h58.4V80.3c1.6,3,3.8,5.5,6.6,7.5c4,2.9,11.2,5.6,21.7,8.1l10.7,2.5c6.2,1.4,10.8,3,13.7,4.9
		C402.2,105.3,403.7,107.9,403.7,111.4z"/>
	<path d="M400.6,66.6H420v27.9c-1.4-2.4-3.1-4.5-5.4-6.3c-3.8-3.2-9.5-5.7-17.1-7.6l-17.3-4.4c-6.7-1.6-11-3.1-13.1-4.3
		c-3.2-1.8-4.8-4.6-4.8-8.4c0-4.1,1.7-7.3,4.9-9.6c3.3-2.3,7.6-3.4,13.1-3.4c4.9,0,9,0.8,12.3,2.6C397.6,55.8,400.2,60.3,400.6,66.6
		z"/>
	<path d="M402.3,17.6v0.1c-6.4-2-13.2-3.1-20.6-3.1c-8.1,0-15.4,1.1-21.9,3.1H153.4v34.8l-21-27.8l-5.3-7H0v139.9h135.1V124
		l20.4,26.7l5.3,6.9h199.8c6.9,2.1,14.5,3.2,22.9,3.2c8.2,0,15.6-1.1,22.3-3.2h111.4v-140C517.2,17.6,402.3,17.6,402.3,17.6z
		 M499.5,53.1h-58.4v23.2h58.4v17.6h-58.4v28.4h58.4v17.6H420v-15.1c-1.7,3.2-4,6.1-6.9,8.8c-7,6.3-16.8,9.5-29.6,9.5
		c-13,0-23.2-3.1-30.7-9.4c-2.5-2.1-4.5-4.4-6.2-7v13.2H169.5l-52.1-68.1v68.1H17.7V35.4h100.6l52.8,69.8V35.4h175.5v14.7
		c1.6-3.1,3.7-5.9,6.4-8.5c6.5-6.2,16.1-9.3,28.7-9.3c10.5,0,19.5,2.9,27,8.8c6.3,5,10.1,11.8,11.3,20.6V35.4h79.5L499.5,53.1
		L499.5,53.1z"/>
</g>
</svg>
