<?xml version="1.0" standalone="no"?>
<!DOCTYPE svg PUBLIC "-//W3C//DTD SVG 20010904//EN"
 "http://www.w3.org/TR/2001/REC-SVG-20010904/DTD/svg10.dtd">
<svg version="1.0" xmlns="http://www.w3.org/2000/svg"
 width="700.000000pt" height="700.000000pt" viewBox="0 0 700.000000 700.000000"
 preserveAspectRatio="xMidYMid meet">
<metadata>
Created by potrace 1.11, written by Peter Selinger 2001-2013
</metadata>
<g transform="translate(0.000000,700.000000) scale(0.100000,-0.100000)"
fill="#000000" stroke="none">
<path d="M1210 3500 l0 -2790 2290 0 2290 0 0 2790 0 2790 -2290 0 -2290 0 0
-2790z m3880 1730 l0 -350 -1165 0 -1165 0 0 -465 0 -465 1165 0 1165 0 0
-350 0 -350 -1165 0 -1165 0 0 -565 0 -565 1163 -2 1162 -3 3 -352 2 -353
-1585 0 -1585 0 0 2085 0 2085 1585 0 1585 0 0 -350z"/>
</g>
</svg>
